<svg xmlns="http://www.w3.org/2000/svg" enable-background="new 0 0 512.003 512.003" height="512.003" width="512.003" style=""><rect id="backgroundrect" width="100%" height="100%" x="0" y="0" fill="none" stroke="none"/><g class="currentLayer" style=""><title>Layer 1</title><g id="svg_1" class="selected" fill="#ffffff" fill-opacity="1"><path d="m488.03606848335266,412.47606848335266 c-0.53,0.04000000000000001 -0.97,0.07 -1.25,0.08000000000000002 h-46.01 c-11.88,0 -21.85,-9.14 -22.92,-20.9 c1.07,-11.74 11.04,-20.87 22.92,-20.87 h45.99 c0.30000000000000004,0.010000000000000002 0.7400000000000001,0.05000000000000001 1.26,0.09000000000000002 c5.47,0.4 16.86,1.24 21.61,-7.03 c4.85,-8.43 -2.1,-18.57 -4.39,-21.91 c-15.77,-23.03 -41.75,-36.77 -69.49,-36.77 c-1.1400000000000001,0 -2.2800000000000002,0.020000000000000004 -3.41,0.07 c11.11,-24.74 16.95,-51.84 16.95,-79.18 c0,-47.94 -11.23,-81.99 -48.28,-127.64 c-35.58,-40.4 -87.71,-65.94 -145.71,-65.94 h-24.75 c-12.29,0 -22.3,9.99 -22.3,22.26 v11.31 c-11.48,3.36 -22.56,7.94 -33.06,13.69 l-8.01,-8 c-4.2,-4.22 -9.81,-6.54 -15.79,-6.54 s-11.58,2.3200000000000003 -15.77,6.52 l-34.98,34.9 c-4.2,4.2 -6.52,9.79 -6.52,15.75 s2.3200000000000003,11.55 6.51,15.74 l8.03,8.03 c-5.75,10.47 -10.35,21.52 -13.71,32.96 h-11.35 c-12.3,0 -22.3,9.99 -22.3,22.27 v49.38 c0,12.28 10,22.27 22.3,22.27 h11.38 c3.36,11.44 7.94,22.49 13.68,32.96 l-4.53,4.51 c-9.22,-3.45 -19.12,-5.32 -29.29,-5.32 c-27.75,0 -53.72,13.75 -69.46,36.77 c-2.2800000000000002,3.34 -9.24,13.49 -4.39,21.92 c4.75,8.26 16.12,7.42 21.59,7.02 c0.52,-0.04000000000000001 0.9500000000000001,-0.08000000000000002 1.24,-0.09000000000000002 h46.03 c11.9,0 21.86,9.13 22.9,20.87 c-1.04,11.76 -11,20.9 -22.9,20.9 h-46.01 c-0.31000000000000005,-0.010000000000000002 -0.7400000000000001,-0.04000000000000001 -1.27,-0.08000000000000002 c-5.46,-0.41000000000000003 -16.83,-1.26 -21.58,6.99 c-4.85,8.43 2.11,18.58 4.39,21.91 c15.74,23.03 41.71,36.78 69.46,36.78 c33.23,0 63.5,-19.9 76.92,-50.03 h87.86 c4.14,0 7.5,-3.36 7.5,-7.5 c0,-4.15 -3.36,-7.5 -7.5,-7.5 h-92.89 c-3.14,0 -5.94,1.9500000000000002 -7.03,4.88 c-10.04,27.01 -36.1,45.15 -64.86,45.15 c-22.79,0 -44.13,-11.31 -57.08,-30.25 c-1.81,-2.6500000000000004 -2.67,-4.44 -3.08,-5.53 c1.44,-0.19000000000000003 3.7,-0.17 6.78,0.06000000000000001 c0.93,0.07 1.6700000000000002,0.12000000000000001 2.36,0.12000000000000001 h46.03 c19.94,0 36.58,-15.55 37.9,-35.4 c0.020000000000000004,-0.33000000000000007 0.020000000000000004,-0.6600000000000001 0,-0.99 c-1.32,-19.84 -17.96,-35.38 -37.9,-35.38 h-46.03 c-0.6900000000000002,0 -1.42,0.06000000000000001 -2.35,0.13 c-3.09,0.22000000000000003 -5.36,0.24000000000000002 -6.8,0.04000000000000001 c0.41000000000000003,-1.09 1.27,-2.88 3.09,-5.54 c12.95,-18.95 34.29,-30.25 57.08,-30.25 c28.76,0 54.82,18.15 64.86,45.17 c1.09,2.94 3.89,4.890000000000001 7.03,4.890000000000001 h217.14 c3.13,0 5.93,-1.9500000000000002 7.03,-4.88 c2.3200000000000003,-6.25 17.41,-44.28 64.85,-45.18 c22.786,-0.43200000000000005 44.14,11.31 57.12,30.25 c1.82,2.66 2.68,4.45 3.08,5.54 c-1.44,0.2 -3.72,0.18000000000000002 -6.83,-0.04000000000000001 c-0.93,-0.07 -1.6600000000000001,-0.13 -2.34,-0.13 h-46.01 c-19.91,0 -36.57,15.54 -37.92,35.36 c-0.030000000000000006,0.3400000000000001 -0.030000000000000006,0.6800000000000002 0,1.02 c1.35,19.85 18.01,35.39 37.92,35.39 h46.01 c0.6900000000000002,0 1.42,-0.05000000000000001 2.36,-0.12000000000000001 c3.09,-0.23 5.36,-0.25 6.8100000000000005,-0.06000000000000001 c-0.41000000000000003,1.09 -1.27,2.88 -3.08,5.53 c-12.98,18.94 -34.33,30.25 -57.12,30.25 c-28.72,0 -54.79,-18.15 -64.86,-45.15 c-1.09,-2.94 -3.89,-4.88 -7.02,-4.88 h-89.98 c-3.3,0 -6.1,2.12 -7.1,5.09 c-0.26,0.7500000000000001 -0.4,1.57 -0.4,2.41 c0,4.14 3.36,7.5 7.5,7.5 h84.95 c13.44,30.13 43.71,50.03 76.91,50.03 c27.74,0 53.72,-13.75 69.49,-36.78 c2.29,-3.33 9.24,-13.48 4.39,-21.9 c-4.75,-8.259 -16.13,-7.409 -21.6,-7 zm-240.23,-284.159 c-41.43,3.15 -76.82,32.16 -87.52,72.72 c-1.05,4.01 1.34,8.11 5.34,9.16 c4.01,1.06 8.11,-1.33 9.17,-5.34 c8.96,-33.98 38.39,-58.39 73.01,-61.5 v165.41 c-37.5,-3.31 -68.27,-31.25 -74.57,-68.87 c-0.6800000000000002,-4.09 -4.55,-6.85 -8.63,-6.16 c-4.09,0.6800000000000002 -6.85,4.55 -6.16,8.63 c3.7800000000000002,22.61 15.54,43.3 33.09,58.26 c15.84,13.51 35.59,21.58 56.27,23.16 v31.44 h-96.03 c-7.1,-15.94 -18.9,-29.01 -33.36,-37.8 l4.9,-4.890000000000001 c2.43,-2.42 2.9,-6.19 1.15,-9.14 c-7.37,-12.4 -12.93,-25.77 -16.5,-39.74 c-0.8500000000000001,-3.3200000000000003 -3.84,-5.640000000000001 -7.27,-5.640000000000001 h-17.09 c-4.02,0 -7.3,-3.26 -7.3,-7.27 v-49.38 c0,-4.01 3.2800000000000002,-7.27 7.3,-7.27 h17.06 c3.43,0 6.42,-2.3200000000000003 7.27,-5.640000000000001 c3.5700000000000003,-13.96 9.13,-27.33 16.53,-39.74 c1.75,-2.94 1.28,-6.71 -1.1400000000000001,-9.14 l-12.09,-12.08 c-1.36,-1.36 -2.11,-3.18 -2.11,-5.13 s0.7500000000000001,-3.77 2.11,-5.13 l35,-34.91 c1.36,-1.37 3.2,-2.13 5.16,-2.13 c1.97,0 3.8,0.7600000000000001 5.18,2.14 l12.07,12.05 c2.43,2.42 6.18,2.89 9.13,1.1400000000000001 c12.43,-7.38 25.83,-12.93 39.83,-16.49 c3.33,-0.8500000000000001 5.65,-3.84 5.65,-7.27 v-17.03 c0,-4 3.2800000000000002,-7.26 7.3,-7.26 h17.25 zm146.57,-14.55 c23.47,28.89 38.11,65.19 39.75,104.79 h-86.52 c-0.53,-30.67 -4.3100000000000005,-59.31 -10.67,-84.48 c21.34,-4.92 40.86,-11.78 57.44,-20.31 zm-72.34,201.209 c-18.83,-3.43 -38.8,-5.41 -59.23,-5.8 v-75.62 h69.8 c-0.56,29.341 -4.35,57.121 -10.57,81.42 zm-59.23,-96.419 v-75.62 c20.43,-0.39000000000000007 40.4,-2.37 59.23,-5.8 c6.22,24.3 10.01,52.08 10.57,81.42 zm55.11,-95.91 c-17.51,3.11 -36.09,4.91 -55.11,5.29 v-79.59 c22.39,5.25 42.33,33.62 55.11,74.3 zm66.16,-20.49 c-14.92,7.28 -32.27,13.17 -51.18,17.48 c-8.89,-28.79 -21.36,-52.08 -36.19,-67.32 c33.84,8.02 63.99,25.66 87.37,49.84 zm-121.27,253.069 v-31.05 c19.03,0.38000000000000006 37.6,2.18 55.11,5.28 c-2.91,9.27 -6.19,17.91 -9.8,25.77 zm96.03,0 h-34.28 c3.04,-7.19 5.8,-14.8 8.25,-22.77 c11.76,2.67 22.91,5.95 33.26,9.8 c-2.7600000000000002,4.071 -5.19,8.401 -7.23,12.97 zm17.3,-25.149 c-12.1,-4.8 -25.29,-8.84 -39.27,-12.06 c6.52,-25.74 10.21,-54.51 10.73,-84.46 h86.53 c-1.1,25.97 -7.86,51.49 -19.76,74.41 c-14.5,3.8600000000000003 -27.71,11.55 -38.23,22.11 z" id="svg_2" fill="#ffffff" fill-opacity="1"/></g></g></svg>