<svg xmlns="http://www.w3.org/2000/svg" height="511" width="511.99798583984375" style=""><rect id="backgroundrect" width="100%" height="100%" x="0" y="0" fill="none" stroke="none"/><g class="currentLayer" style=""><title>Layer 1</title><path d="m59.64586951664734,187.046875 c1.460937,1.460937 3.378906,2.195313 5.296874,2.195313 c1.917969,0 3.835938,-0.730469 5.300782,-2.195313 c2.925781,-2.925781 2.925781,-7.671875 0,-10.597656 l-18.195313,-18.195313 l18.195313,-18.191406 c2.925781,-2.929688 2.925781,-7.671875 0,-10.597656 c-2.925782,-2.925782 -7.671875,-2.925782 -10.597656,0 l-23.492188,23.492187 c-1.40625,1.40625 -2.195312,3.3125 -2.195312,5.296875 c0,1.9882819999999999 0.7890619999999999,3.894532 2.195312,5.300782 zm0,0 " id="svg_1" class="" fill="#ffffff" fill-opacity="1"/><path d="m133.320312 158.253906-18.195312 18.195313c-2.925781 2.925781-2.925781 7.671875.003906 10.597656 1.460938 1.460937 3.378906 2.195313 5.296875 2.195313s3.835938-.734376 5.296875-2.195313l23.496094-23.496094c2.925781-2.925781 2.925781-7.671875 0-10.59375l-23.496094-23.496093c-2.925781-2.925782-7.667968-2.925782-10.59375 0-2.929687 2.929687-2.929687 7.671874 0 10.597656zm0 0" id="svg_2" class="" fill="#ffffff" fill-opacity="1"/><path d="m81.171875 188.722656c.898437.351563 1.828125.519532 2.738281.519532 2.992188 0 5.816406-1.804688 6.976563-4.753907l18.457031-46.988281c1.515625-3.851562-.382812-8.199219-4.234375-9.714844-3.847656-1.511718-8.199219.382813-9.710937 4.234375l-18.460938 46.988281c-1.511719 3.851563.382812 8.203126 4.234375 9.714844zm0 0" id="svg_3" class="" fill="#ffffff" fill-opacity="1"/><path d="m45.007812 233.203125h50.480469c4.136719 0 7.492188-3.355469 7.492188-7.496094 0-4.136719-3.355469-7.492187-7.492188-7.492187h-50.480469c-4.140624 0-7.492187 3.355468-7.492187 7.492187 0 4.140625 3.351563 7.496094 7.492187 7.496094zm0 0" id="svg_4" class="" fill="#ffffff" fill-opacity="1"/><path d="m211.753906 218.214844h-88.75c-4.136718 0-7.492187 3.355468-7.492187 7.492187 0 4.140625 3.355469 7.496094 7.492187 7.496094h88.75c4.140625 0 7.496094-3.355469 7.496094-7.496094 0-4.136719-3.355469-7.492187-7.496094-7.492187zm0 0" id="svg_5" class="" fill="#ffffff" fill-opacity="1"/><path d="m45.007812 264.808594h21.503907c4.136719 0 7.492187-3.355469 7.492187-7.496094 0-4.136719-3.355468-7.492188-7.492187-7.492188h-21.503907c-4.140624 0-7.492187 3.355469-7.492187 7.492188 0 4.140625 3.351563 7.496094 7.492187 7.496094zm0 0" id="svg_6" class="" fill="#ffffff" fill-opacity="1"/><path d="m184.339844 249.820312c-4.140625 0-7.492188 3.355469-7.492188 7.492188 0 4.140625 3.351563 7.496094 7.492188 7.496094h13.09375c4.140625 0 7.496094-3.355469 7.496094-7.496094 0-4.136719-3.355469-7.492188-7.496094-7.492188zm0 0" id="svg_7" class="" fill="#ffffff" fill-opacity="1"/><path d="m163.93225648335266,257.99743151664734 c0,-4.136719 -3.3554690000000003,-7.4921880000000005 -7.4921880000000005,-7.4921880000000005 h-64.320312 c-4.140626,0 -7.4921880000000005,3.3554690000000003 -7.4921880000000005,7.4921880000000005 c0,4.140625 3.351562,7.496094 7.4921880000000005,7.496094 h64.320312 c4.136719,0 7.4921880000000005,-3.3554690000000003 7.4921880000000005,-7.496094 zm0,0 " id="svg_8" class="" fill="#ffffff" fill-opacity="1"/><path d="m213.703125 257.3125c0 4.140625 3.355469 7.496094 7.492187 7.496094h24.527344c4.140625 0 7.496094-3.355469 7.496094-7.496094 0-4.136719-3.355469-7.492188-7.496094-7.492188h-24.527344c-4.136718 0-7.492187 3.355469-7.492187 7.492188zm0 0" id="svg_9" class="" fill="#ffffff" fill-opacity="1"/><path d="m172.894531 164.265625h25.871094c4.140625 0 7.496094-3.355469 7.496094-7.496094 0-4.136719-3.355469-7.492187-7.496094-7.492187h-25.871094c-4.140625 0-7.496093 3.355468-7.496093 7.492187 0 4.140625 3.355468 7.496094 7.496093 7.496094zm0 0" id="svg_10" class="" fill="#ffffff" fill-opacity="1"/><path d="m227.742188 164.265625h157.855468c4.140625 0 7.492188-3.355469 7.492188-7.496094 0-4.136719-3.351563-7.492187-7.492188-7.492187h-157.855468c-4.140626 0-7.496094 3.355468-7.496094 7.492187 0 4.140625 3.355468 7.496094 7.496094 7.496094zm0 0" id="svg_11" class="" fill="#ffffff" fill-opacity="1"/><path d="m361.621094 182.246094h-63.945313c-4.136719 0-7.492187 3.355468-7.492187 7.496094 0 4.136718 3.355468 7.492187 7.492187 7.492187h63.945313c4.136718 0 7.492187-3.355469 7.492187-7.492187 0-4.140626-3.355469-7.496094-7.492187-7.496094zm0 0" id="svg_12" class="" fill="#ffffff" fill-opacity="1"/><path d="m273.699219 182.246094h-21.980469c-4.140625 0-7.492188 3.355468-7.492188 7.496094 0 4.136718 3.351563 7.492187 7.492188 7.492187h21.980469c4.140625 0 7.492187-3.355469 7.492187-7.492187 0-4.140626-3.351562-7.496094-7.492187-7.496094zm0 0" id="svg_13" class="" fill="#ffffff" fill-opacity="1"/><path d="m172.894531 197.234375h53.847657c4.136718 0 7.492187-3.355469 7.492187-7.492187 0-4.140626-3.355469-7.496094-7.492187-7.496094h-53.847657c-4.140625 0-7.496093 3.355468-7.496093 7.496094 0 4.136718 3.355468 7.492187 7.496093 7.492187zm0 0" id="svg_14" class="" fill="#ffffff" fill-opacity="1"/><path d="m157.21875 281.160156h-50.476562c-4.140626 0-7.496094 3.355469-7.496094 7.492188 0 4.136718 3.355468 7.492187 7.496094 7.492187h50.476562c4.136719 0 7.492188-3.355469 7.492188-7.492187 0-4.136719-3.355469-7.492188-7.492188-7.492188zm0 0" id="svg_15" class="" fill="#ffffff" fill-opacity="1"/><path d="m83.789062 281.160156h-38.78125c-4.140624 0-7.492187 3.355469-7.492187 7.492188 0 4.136718 3.351563 7.492187 7.492187 7.492187h38.78125c4.140626 0 7.492188-3.355469 7.492188-7.492187 0-4.136719-3.351562-7.492188-7.492188-7.492188zm0 0" id="svg_16" class="selected" fill="#ffffff" fill-opacity="1"/><path d="m248.722656 281.160156h-65.941406c-4.140625 0-7.492188 3.355469-7.492188 7.492188 0 4.136718 3.351563 7.492187 7.492188 7.492187h65.941406c4.136719 0 7.492188-3.355469 7.492188-7.492187 0-4.136719-3.355469-7.492188-7.492188-7.492188zm0 0" id="svg_17" class="" fill="#ffffff" fill-opacity="1"/><path d="m337.898438 242.667969h-36.058594c-4.136719 0-7.492188 3.355469-7.492188 7.492187 0 4.140625 3.355469 7.496094 7.492188 7.496094h36.058594c4.140624 0 7.492187-3.355469 7.492187-7.496094 0-4.136718-3.351563-7.492187-7.492187-7.492187zm0 0" id="svg_18" class="" fill="#ffffff" fill-opacity="1"/><path d="m400.46875 257.65625h50.902344c4.140625 0 7.496094-3.355469 7.496094-7.496094 0-4.136718-3.355469-7.492187-7.496094-7.492187h-50.902344c-4.140625 0-7.492188 3.355469-7.492188 7.492187 0 4.140625 3.355469 7.496094 7.492188 7.496094zm0 0" id="svg_19" class="" fill="#ffffff" fill-opacity="1"/><path d="m375.70055651664734,242.667969 h-11.664063 c-4.140624,0 -7.496093,3.3554690000000003 -7.496093,7.492187 c0,4.140625 3.3554690000000003,7.496094 7.496093,7.496094 h11.664063 c4.140625,0 7.492187,-3.3554690000000003 7.492187,-7.496094 c0,-4.136718 -3.351562,-7.492187 -7.492187,-7.492187 zm0,0 " id="svg_20" class="" fill="#ffffff" fill-opacity="1"/><path d="m301.839844 339.3125h36.058594c4.140624 0 7.492187-3.351562 7.492187-7.492188 0-4.136718-3.351563-7.492187-7.492187-7.492187h-36.058594c-4.136719 0-7.492188 3.355469-7.492188 7.492187 0 4.140626 3.355469 7.492188 7.492188 7.492188zm0 0" id="svg_21" class="" fill="#ffffff" fill-opacity="1"/><path d="m400.46875 339.3125h50.902344c4.140625 0 7.496094-3.351562 7.496094-7.492188 0-4.136718-3.355469-7.492187-7.496094-7.492187h-50.902344c-4.140625 0-7.492188 3.355469-7.492188 7.492187 0 4.140626 3.355469 7.492188 7.492188 7.492188zm0 0" id="svg_22" class="" fill="#ffffff" fill-opacity="1"/><path d="m363.351562 339.3125h11.664063c4.140625 0 7.496094-3.351562 7.496094-7.492188 0-4.136718-3.355469-7.492187-7.496094-7.492187h-11.664063c-4.140624 0-7.492187 3.355469-7.492187 7.492187 0 4.140626 3.351563 7.492188 7.492187 7.492188zm0 0" id="svg_23" class="" fill="#ffffff" fill-opacity="1"/><path d="m337.898438 405.988281h-36.058594c-4.136719 0-7.492188 3.355469-7.492188 7.492188s3.355469 7.492187 7.492188 7.492187h36.058594c4.140624 0 7.492187-3.355468 7.492187-7.492187s-3.351563-7.492188-7.492187-7.492188zm0 0" id="svg_24" class="" fill="#ffffff" fill-opacity="1"/><path d="m451.371094 405.988281h-50.902344c-4.140625 0-7.492188 3.355469-7.492188 7.492188s3.351563 7.492187 7.492188 7.492187h50.902344c4.140625 0 7.496094-3.355468 7.496094-7.492187s-3.355469-7.492188-7.496094-7.492188zm0 0" id="svg_25" class="" fill="#ffffff" fill-opacity="1"/><path d="m375.015625 405.988281h-11.664063c-4.140624 0-7.496093 3.355469-7.496093 7.492188s3.355469 7.492187 7.496093 7.492187h11.664063c4.140625 0 7.492187-3.355468 7.492187-7.492187s-3.351562-7.492188-7.492187-7.492188zm0 0" id="svg_26" class="" fill="#ffffff" fill-opacity="1"/><path d="m479.70836951664734,0.5 h-446.042969 c-18.183594,0 -32.980469,14.792969 -32.980469,32.980469 v362.566406 c0,18.183594 14.796875,32.976563 32.980469,32.976563 h28.199219 c4.136718,0 7.492187,-3.351563 7.492187,-7.4921880000000005 c0,-4.136719 -3.3554690000000003,-7.4921880000000005 -7.492187,-7.4921880000000005 h-28.199219 c-9.921875,0 -17.992188,-8.070312 -17.992188,-17.992187 v-28.425781 h272.996094 v12.914062 h-5.941406 c-8.128907,0 -14.738281,6.609375 -14.738281,14.738282 v18.765624 h-160.566407 c-4.136719,0 -7.492187,3.3554690000000003 -7.492187,7.4921880000000005 c0,4.140625 3.355468,7.4921880000000005 7.492187,7.4921880000000005 h72.046875 v26.875 h-22.625 c-15.09375,0 -27.371094,12.28125 -27.371094,27.371093 v16.1875 c0,6.886719 5.601563,12.488281 12.488282,12.488281 h228.875 c6.886718,0 12.488281,-5.6015619999999995 12.488281,-12.488281 v-16.1875 c0,-15.089843 -12.277344,-27.371093 -27.371094,-27.371093 h-22.625 v-9.472657 h138.527344 c8.125,0 14.734375,-6.609375 14.734375,-14.738281 v-3.5273440000000003 c14.605469,-3.390625 25.523438,-16.496094 25.523438,-32.113281 l0.566406,-362.570313 c0.003906000000000001,-18.183593 -14.789063,-32.976562 -32.972656,-32.976562 zm-196.730469,349.28125 v-35.917969 h188.628906 v35.917969 zm20.675781,-50.90625 v-15.765625 h147.273438 v15.765625 zm147.273438,65.890625 v15.769531 h-147.273438 v-15.769531 zm-256.472657,64.257813 h73.535157 v2.667968 c0,8.125 6.609374,14.734375 14.738281,14.734375 h35.617187 v9.472657 h-123.890625 zm161.503907,41.863281 c6.828124,0 12.382812,5.554687 12.382812,12.382812 v13.691407 h-223.882812 v-13.691407 c0,-6.828125 5.558593,-12.382812 12.386718,-12.382812 zm115.648437,-39.449219 h-188.628906 v-35.914062 h188.628906 zm25.523437,-35.390625 c0,7.257813 -4.328124,13.511719 -10.535156,16.351563 v-17.128907 c0,-8.125 -6.613281,-14.734375 -14.738281,-14.734375 h-5.941406 v-12.914062 h31.214843 zm0,-43.410156 h-10.78125 c0.15234400000000003,-0.8476570000000001 0.24609400000000003,-39.023438 0.24609400000000003,-39.023438 c0,-8.128906 -6.613281,-14.738281 -14.738281,-14.738281 h-5.941406 v-15.765625 h5.941406 c8.125,0 14.738281,-6.613281 14.738281,-14.738281 v-36.417969 c0,-8.125 -6.613281,-14.738281 -14.738281,-14.738281 h-42.324219 c-4.140625,0 -7.492187,3.355468 -7.492187,7.496094 c0,4.136718 3.351562,7.492187 7.492187,7.492187 h42.074219 v35.917969 h-188.628906 v-35.917969 h99.929687 c4.140625,0 7.4921880000000005,-3.3554690000000003 7.4921880000000005,-7.492187 c0,-4.140626 -3.351563,-7.496094 -7.4921880000000005,-7.496094 h-100.179687 c-8.128907,0 -14.738281,6.613281 -14.738281,14.738281 v36.417969 c0,8.125 6.609374,14.738281 14.738281,14.738281 h5.941406 v15.765625 h-5.941406 c-8.128907,0 -14.738281,6.613281 -14.738281,14.738281 c0,0 0.09375000000000003,38.175781 0.24609300000000003,39.023438 h-252.5625 v-250.207031 h481.457031 zm0,-265.195313 h-480.90625 v-53.964844 c0,-9.917968 8.070313,-17.988281 17.992188,-17.988281 h444.921875 c9.921875,0 17.992187,8.070313 17.992187,17.992188 zm0,0 " id="svg_27" class="" fill="#ffffff" fill-opacity="1"/><path d="m55.261719 29.261719c-12.125 0-21.988281 9.863281-21.988281 21.988281s9.863281 21.992188 21.988281 21.992188 21.992187-9.867188 21.992187-21.992188-9.867187-21.988281-21.992187-21.988281zm0 28.992187c-3.859375 0-7.003907-3.140625-7.003907-7.003906 0-3.859375 3.144532-7.003906 7.003907-7.003906 3.863281 0 7.003906 3.144531 7.003906 7.003906 0 3.863281-3.140625 7.003906-7.003906 7.003906zm0 0" id="svg_28" class="" fill="#ffffff" fill-opacity="1"/><path d="m111.25 29.261719c-12.125 0-21.992188 9.863281-21.992188 21.988281s9.867188 21.992188 21.992188 21.992188 21.988281-9.867188 21.988281-21.992188-9.867187-21.988281-21.988281-21.988281zm0 28.992187c-3.863281 0-7.003906-3.140625-7.003906-7.003906 0-3.859375 3.140625-7.003906 7.003906-7.003906 3.859375 0 7.003906 3.144531 7.003906 7.003906 0 3.863281-3.144531 7.003906-7.003906 7.003906zm0 0" id="svg_29" class="" fill="#ffffff" fill-opacity="1"/><path d="m167.234375 29.261719c-12.125 0-21.988281 9.863281-21.988281 21.988281s9.863281 21.992188 21.988281 21.992188 21.992187-9.867188 21.992187-21.992188-9.867187-21.988281-21.992187-21.988281zm0 28.992187c-3.859375 0-7.003906-3.140625-7.003906-7.003906 0-3.859375 3.144531-7.003906 7.003906-7.003906 3.863281 0 7.003906 3.144531 7.003906 7.003906 0 3.863281-3.140625 7.003906-7.003906 7.003906zm0 0" id="svg_30" class="" fill="#ffffff" fill-opacity="1"/></g></svg>